<svg width="24" height="24" viewBox="0 0 24 24" fill="none" xmlns="http://www.w3.org/2000/svg">
<path d="M19.8243 10.808C20.8323 15.08 18.2403 19.352 13.9683 20.36C9.69629 21.368 5.47229 18.824 4.41629 14.552C3.36029 10.28 6.00029 6.00801 10.2723 5.00001V5.00001C14.4963 3.94401 18.7683 6.53601 19.8243 10.808V10.808Z" fill="#59B4D9"/>
<path opacity="0.5" d="M10.9926 15.848C10.9926 14.696 10.0326 13.736 8.88064 13.736V13.736H8.54464C8.83264 12.632 8.11264 11.48 7.00864 11.192C6.86464 11.144 6.67264 11.144 6.48064 11.144H4.36864C3.88864 13.592 4.60864 16.088 6.28864 17.912H8.92864C10.0806 17.96 10.9926 17.048 10.9926 15.848V15.848Z" fill="white"/>
<path opacity="0.5" d="M13.6325 7.16009C13.6325 7.30409 13.6325 7.40009 13.6805 7.54409H12.7685C11.5685 7.54409 10.5605 8.50409 10.5605 9.75209C10.5605 11.0001 11.5205 11.9601 12.7685 11.9601H20.0165C19.7765 9.27209 18.2405 6.96809 15.9365 5.72009H15.0725C14.2565 5.72009 13.6325 6.34409 13.6325 7.16009Z" fill="white"/>
<path opacity="0.5" d="M20.016 13.4961H15.696C14.736 13.4961 13.92 14.2641 13.92 15.2721C13.92 15.5601 14.016 15.8481 14.112 16.1361C13.152 16.4241 12.672 17.4321 12.96 18.3441C13.2 19.1121 13.872 19.5921 14.688 19.5921H15.84C18.144 18.3921 19.728 16.0881 20.016 13.4961Z" fill="white"/>
<path d="M3.264 7.40004C3.12 7.40004 3.024 7.30404 3.024 7.16004C3.024 5.62404 1.776 4.37604 0.24 4.37604C0.096 4.42404 0 4.28004 0 4.18404C0 4.08804 0.096 3.94404 0.24 3.94404C1.776 3.94404 3.024 2.69604 3.024 1.16004C3.024 1.01604 3.12 0.920044 3.264 0.920044C3.408 0.920044 3.504 1.01604 3.504 1.16004C3.504 2.69604 4.752 3.94404 6.288 3.94404C6.432 3.94404 6.528 4.04004 6.528 4.18404C6.528 4.32804 6.432 4.42404 6.288 4.42404C4.752 4.42404 3.504 5.67204 3.504 7.20804C3.504 7.30404 3.408 7.40004 3.264 7.40004Z" fill="#B8D432"/>
<path d="M20.3528 23C20.2568 23 20.2088 22.952 20.2088 22.856C20.2088 21.944 19.4408 21.224 18.5288 21.224C18.4328 21.224 18.3848 21.176 18.3848 21.08C18.3848 20.984 18.4328 20.936 18.5288 20.936V20.936C19.4408 20.936 20.1608 20.216 20.2088 19.304C20.2088 19.208 20.2568 19.16 20.3528 19.16C20.4488 19.16 20.4968 19.208 20.4968 19.304C20.4968 20.216 21.2648 20.936 22.1768 20.936C22.2728 20.936 22.3208 20.984 22.3208 21.08C22.3208 21.176 22.2728 21.224 22.1768 21.224V21.224C21.2648 21.224 20.5448 21.944 20.4968 22.856C20.4968 22.904 20.4488 23 20.3528 23V23Z" fill="#26BCEE"/>
<path d="M23.6631 5.576C22.8951 4.328 21.0231 4.04 18.1431 4.76C17.2791 5 16.3671 5.24 15.5511 5.576C16.0791 5.864 16.6071 6.152 17.0871 6.536C17.5671 6.392 18.0471 6.248 18.4791 6.104C19.2471 5.912 20.0151 5.816 20.7831 5.768C21.6951 5.768 22.2231 6.008 22.4151 6.296C22.7031 6.776 22.4151 7.976 20.7831 9.896C20.4951 10.232 20.1591 10.568 19.8231 10.904C17.9991 12.632 16.0311 14.168 13.8711 15.464C11.7111 16.808 9.45512 17.912 7.05512 18.68C4.17512 19.592 2.20712 19.592 1.77512 18.872C1.34312 18.152 2.20712 16.376 4.36712 14.264C4.22312 13.64 4.17512 13.016 4.17512 12.44C0.767124 15.512 -0.336876 18.2 0.527124 19.64C1.00712 20.408 2.01512 20.84 3.45512 20.84C5.18312 20.744 6.91112 20.408 8.54312 19.736C10.6551 18.92 12.6711 17.912 14.5431 16.712C16.4631 15.56 18.2871 14.216 19.9671 12.68C20.6391 12.104 21.2631 11.48 21.8391 10.808C23.8071 8.6 24.4311 6.776 23.6631 5.576Z" fill="black"/>
</svg>
